# Blender v2.65 (sub 0) OBJ File: 'sphere.blend'
# www.blender.org
o Icosphere
v 0.002317 -0.047463 0.004407
v 0.036661 -0.021226 0.029359
v -0.010801 -0.021226 0.044781
v -0.040135 -0.021226 0.004407
v -0.010801 -0.021226 -0.035968
v 0.036661 -0.021226 -0.020546
v 0.015435 0.021226 0.044781
v -0.032028 0.021226 0.029359
v -0.032028 0.021226 -0.020546
v 0.015435 0.021226 -0.035968
v 0.044769 0.021226 0.004407
v 0.002317 0.047463 0.004407
v 0.076657 -0.163177 0.049898
v 0.014793 -0.024953 0.042805
v -0.005394 -0.040374 0.028138
v 0.022504 -0.040374 -0.010260
v 0.042691 -0.024953 0.004407
v -0.136943 -0.100850 0.086534
v -0.022636 -0.040374 0.004407
v -0.030347 -0.024953 -0.019325
v -0.036094 -0.163177 -0.105291
v 0.014793 -0.024953 -0.033991
v 0.047457 0.000000 -0.010260
v 0.177507 0.000000 0.049898
v 0.030215 0.000000 0.042805
v -0.004931 0.000000 0.182447
v -0.025581 0.000000 0.042805
v -0.042823 0.000000 0.019073
v -0.042823 0.000000 -0.010260
v -0.117683 0.000000 -0.164569
v 0.002317 0.000000 -0.043056
v 0.107822 0.000000 -0.164569
v 0.034980 0.024953 0.028138
v -0.010160 0.024953 0.042805
v -0.168107 0.100850 -0.009379
v -0.010160 0.024953 -0.033991
v 0.034980 0.024953 -0.019325
v 0.027269 0.040374 0.004407
v 0.026232 0.163177 0.086533
v -0.017870 0.040374 0.019073
v -0.017870 0.040374 -0.010260
v 0.026232 0.163177 -0.105291
vt 0.439444 0.061238
vt 0.453901 0.185544
vt 0.351080 0.143746
vt 0.438112 0.280579
vt 0.559561 0.280579
vt 0.298406 0.016995
vt 0.853989 0.490889
vt 0.947933 0.585229
vt 0.817612 0.600751
vt 0.722223 0.510447
vt 0.453900 0.375614
vt 0.298406 0.209475
vt 0.367598 0.237845
vt 0.298405 0.280579
vt 0.157368 0.061236
vt 0.245733 0.143745
vt 0.142909 0.185544
vt 0.786353 0.685438
vt 0.876109 0.695073
vt 0.801697 0.767799
vt 0.635494 0.592145
vt 0.719393 0.635090
vt 0.636678 0.686390
vt 0.367597 0.323313
vt 0.229213 0.237845
vt 0.019810 0.114669
vt 0.719187 0.727095
vt 0.523763 0.633529
vt 0.298404 0.351683
vt 0.351078 0.417413
vt 0.245731 0.417413
vt 0.158698 0.280580
vt 0.229212 0.323314
vt 0.142909 0.375615
vt 0.802881 0.862045
vt 0.865677 0.963301
vt 0.716151 0.943742
vt 0.652022 0.768751
vt 0.718981 0.819099
vt 0.620762 0.853437
vt 0.447682 0.742877
vt 0.562266 0.759116
vt 0.490442 0.868959
vt 0.572697 0.490889
vt 0.577001 0.114670
vt 0.990693 0.711312
vt 0.577000 0.446489
vt 0.439443 0.499922
vt 0.914613 0.820660
vt 0.037249 0.280580
vt 0.298405 0.544164
vt 0.157367 0.499922
vt 0.019810 0.446490
vt 0.584385 0.963299
vn -0.309336 -0.939146 0.149297
vn 0.395642 -0.888852 0.231025
vn -0.172155 -0.835383 0.521989
vn 0.538102 -0.349498 0.766991
vn 0.782678 -0.494827 -0.377483
vn -0.496170 -0.868038 -0.016480
vn -0.197882 -0.806085 -0.557695
vn 0.643361 -0.571886 -0.508927
vn 0.971343 0.000336 0.237617
vn -0.080782 -0.678152 0.730430
vn 0.278939 -0.535325 0.797235
vn -0.050356 -0.000214 0.998718
vn -0.838801 -0.240791 -0.488266
vn -0.740013 -0.529496 0.414655
vn -0.947722 0.033357 0.317270
vn 0.040895 -0.292520 -0.955382
vn -0.876247 -0.465743 -0.123356
vn -0.577197 -0.000031 -0.816584
vn 0.675100 -0.721793 -0.152348
vn 0.276742 -0.538133 -0.796106
vn 0.516892 0.000336 -0.856014
vn 0.594226 0.000366 0.804254
vn -0.723472 0.307169 0.618213
vn -0.927793 -0.362255 -0.089084
vn -0.027741 0.001404 -0.999603
vn 0.931700 0.002777 -0.363140
vn 0.559893 0.358257 0.747093
vn 0.677297 0.525254 0.515091
vn 0.122044 0.893368 0.432356
vn -0.454482 0.284158 0.844203
vn -0.594684 0.499771 0.629688
vn -0.468001 0.830470 0.302072
vn -0.435957 0.657796 -0.614185
vn -0.859554 0.503952 -0.084750
vn -0.419477 0.860958 -0.287667
vn -0.033082 0.321360 -0.946348
vn -0.284341 0.503464 -0.815851
vn 0.111972 0.817316 -0.565172
vn 0.607440 0.744713 -0.276315
vn 0.864620 0.481704 -0.142735
vn 0.812128 0.582812 -0.026948
vn -0.329508 0.942351 -0.057680
s 1
f 1/1/1 13/2/2 15/3/3
f 2/4/4 13/2/2 17/5/5
f 1/1/1 15/3/3 19/6/6
f 1/7/1 19/8/6 21/9/7
f 1/7/1 21/9/7 16/10/8
f 2/4/4 17/5/5 24/11/9
f 3/12/10 14/13/11 26/14/12
f 4/15/13 18/16/14 28/17/15
f 5/18/16 20/19/17 30/20/18
f 6/21/19 22/22/20 32/23/21
f 2/4/4 24/11/9 25/24/22
f 3/12/10 26/14/12 27/25/23
f 4/15/13 28/17/15 29/26/24
f 5/18/16 30/20/18 31/27/25
f 6/21/19 32/23/21 23/28/26
f 7/29/27 33/30/28 39/31/29
f 8/32/30 34/33/31 40/34/32
f 9/35/33 35/36/34 41/37/35
f 10/38/36 36/39/37 42/40/38
f 11/41/39 37/42/40 38/43/41
f 15/3/3 14/13/11 3/12/10
f 15/3/3 13/2/2 14/13/11
f 13/2/2 2/4/4 14/13/11
f 17/44/5 16/10/8 6/21/19
f 17/5/5 13/2/2 16/45/8
f 13/2/2 1/1/1 16/45/8
f 19/6/6 18/16/14 4/15/13
f 19/6/6 15/3/3 18/16/14
f 15/3/3 3/12/10 18/16/14
f 21/9/7 20/19/17 5/18/16
f 21/9/7 19/8/6 20/19/17
f 19/8/6 4/46/13 20/19/17
f 16/10/8 22/22/20 6/21/19
f 16/10/8 21/9/7 22/22/20
f 21/9/7 5/18/16 22/22/20
f 24/11/9 23/47/26 11/48/39
f 24/11/9 17/5/5 23/47/26
f 17/44/5 6/21/19 23/28/26
f 26/14/12 25/24/22 7/29/27
f 26/14/12 14/13/11 25/24/22
f 14/13/11 2/4/4 25/24/22
f 28/17/15 27/25/23 8/32/30
f 28/17/15 18/16/14 27/25/23
f 18/16/14 3/12/10 27/25/23
f 30/20/18 29/49/24 9/35/33
f 30/20/18 20/19/17 29/49/24
f 20/19/17 4/46/13 29/49/24
f 32/23/21 31/27/25 10/38/36
f 32/23/21 22/22/20 31/27/25
f 22/22/20 5/18/16 31/27/25
f 25/24/22 33/30/28 7/29/27
f 25/24/22 24/11/9 33/30/28
f 24/11/9 11/48/39 33/30/28
f 27/25/23 34/33/31 8/32/30
f 27/25/23 26/14/12 34/33/31
f 26/14/12 7/29/27 34/33/31
f 29/49/24 35/36/34 9/35/33
f 29/26/24 28/17/15 35/50/34
f 28/17/15 8/32/30 35/50/34
f 31/27/25 36/39/37 10/38/36
f 31/27/25 30/20/18 36/39/37
f 30/20/18 9/35/33 36/39/37
f 23/28/26 37/42/40 11/41/39
f 23/28/26 32/23/21 37/42/40
f 32/23/21 10/38/36 37/42/40
f 39/31/29 38/51/41 12/52/42
f 39/31/29 33/30/28 38/51/41
f 33/30/28 11/48/39 38/51/41
f 40/34/32 39/31/29 12/52/42
f 40/34/32 34/33/31 39/31/29
f 34/33/31 7/29/27 39/31/29
f 41/53/35 40/34/32 12/52/42
f 41/53/35 35/50/34 40/34/32
f 35/50/34 8/32/30 40/34/32
f 42/40/38 41/37/35 12/54/42
f 42/40/38 36/39/37 41/37/35
f 36/39/37 9/35/33 41/37/35
f 38/43/41 42/40/38 12/54/42
f 38/43/41 37/42/40 42/40/38
f 37/42/40 10/38/36 42/40/38
