# Blender v2.65 (sub 0) OBJ File: 'simpleHeightMapping.blend'
# www.blender.org
o Circle_Circle.001
v 0.000000 1.000000 -0.000000
v -0.382683 0.923880 -0.000000
v -0.707107 0.707107 -0.000000
v -0.923880 0.382683 -0.000000
v -1.000000 -0.000000 0.000000
v -0.923880 -0.382684 0.000000
v -0.707107 -0.707107 0.000000
v -0.382683 -0.923880 0.000000
v -0.000000 -1.000000 0.000000
v 0.382683 -0.923880 0.000000
v 0.707107 -0.707107 0.000000
v 0.923880 -0.382684 0.000000
v 1.000000 0.000000 -0.000000
v 0.923879 0.382684 -0.000000
v 0.707107 0.707107 -0.000000
v 0.382683 0.923880 -0.000000
vt 0.686880 0.951131
vt 0.500064 0.988291
vt 0.313248 0.951131
vt 0.845255 0.845308
vt 0.154873 0.845308
vt 0.951079 0.686933
vt 0.049050 0.686933
vt 0.988239 0.500116
vt 0.011889 0.500116
vt 0.951079 0.313300
vt 0.049049 0.313300
vt 0.154873 0.154925
vt 0.845256 0.154925
vt 0.313248 0.049102
vt 0.686880 0.049102
vt 0.500064 0.011942
vn 0.000000 0.000000 1.000000
s off
f 16/1/1 1/2/1 2/3/1
f 15/4/1 16/1/1 2/3/1
f 3/5/1 15/4/1 2/3/1
f 3/5/1 14/6/1 15/4/1
f 3/5/1 4/7/1 14/6/1
f 4/7/1 13/8/1 14/6/1
f 4/7/1 5/9/1 13/8/1
f 5/9/1 12/10/1 13/8/1
f 5/9/1 6/11/1 12/10/1
f 6/11/1 7/12/1 12/10/1
f 7/12/1 11/13/1 12/10/1
f 7/12/1 8/14/1 11/13/1
f 8/14/1 10/15/1 11/13/1
f 8/14/1 9/16/1 10/15/1
