# Blender v2.65 (sub 3) OBJ File: 'turnTable_6.blend'
# www.blender.org
o facing_VIEW.001_Cylinder.001_facing_VIEW.001_Cylinder.009
v -1.910413 -0.086660 -1.046058
v -2.014624 1.004570 0.931958
v -1.910413 1.004570 -1.046058
v 2.009523 -0.086660 -1.046058
v 2.094342 -0.086660 0.931958
v 2.094342 1.004570 0.931958
v 2.009523 1.004570 -1.046058
v -2.014624 -0.086660 0.931958
v 1.838552 -0.086660 -0.976813
v 3.839916 -0.086660 -1.124691
v 3.639719 -0.086660 -3.047244
v 1.737890 -0.086660 -2.910299
v 3.799664 2.029846 -1.196499
v 4.012358 2.029846 0.843783
v 7.736550 1.004570 -1.848336
v 8.160114 1.004570 0.158473
v 4.012358 1.004570 0.843784
v 1.838552 0.996650 -0.976813
v 3.799664 0.996650 -1.124691
v 3.639719 0.996650 -3.047244
v 1.737890 0.996650 -2.910300
v 7.579195 3.026307 -1.848336
v 8.014539 3.026307 0.158473
v 10.116778 3.026307 -0.319399
v 9.588239 3.026307 -2.304354
v 8.018597 2.007650 0.154292
v 10.116778 2.004570 -0.319399
v 9.588239 2.004570 -2.304354
v -8.528734 0.009960 2.147496
v -8.958641 1.031948 4.172210
v -4.168675 0.009960 2.775768
v -4.377473 0.009960 4.793552
v -4.379258 1.032701 4.847184
v -4.171822 1.032701 2.773968
v -8.958641 0.009960 4.172210
v -8.528734 1.031948 2.147496
v -5.206258 0.009960 -5.142801
v -5.531704 0.009960 -3.291809
v -5.206258 1.031948 -5.142801
v -1.619723 0.009960 -4.773222
v -1.726811 0.009960 -2.903562
v -1.728663 1.032842 -2.905139
v -1.622942 1.032842 -4.774891
v -5.531704 1.031948 -3.291809
v 7.736550 2.004570 -1.848335
v 7.582663 2.010730 -1.830863
v 8.160114 2.031388 0.158473
vt 0.000893 0.502492
vt 0.997793 0.502492
vt 0.997793 1.007627
vt 0.000893 1.007627
vt 1.000000 0.537816
vt 1.000000 0.000000
vt 0.000000 0.000000
vt 0.000000 0.537816
vt 1.000000 0.541563
vt 0.000000 0.541563
vt 1.000000 0.526227
vt 0.000000 0.526227
vt 0.001114 0.502492
vt 0.001114 1.007627
vt 0.000819 0.502492
vt 0.000819 1.007627
vt 0.000000 0.509743
vt 0.999852 0.509743
vt 0.999852 0.000000
vt 0.000000 0.519694
vt 1.000000 0.519694
vt 0.002663 1.007748
vt 0.002663 0.505027
vt 0.995584 0.505027
vt 0.995584 1.007748
vt 0.000597 0.502492
vt 0.000597 1.007627
vn 0.999054 0.000000 -0.042817
vn -0.998627 0.000000 0.051973
vn 0.995453 0.018464 -0.093234
vn -0.808344 0.474105 0.348918
vn 0.966308 0.000000 -0.257302
vn 0.994842 -0.000153 0.101199
vn 0.998352 0.002564 0.056795
vn -0.998596 0.000000 -0.052583
vn -0.994385 0.003662 0.105502
vn 0.978423 0.000000 -0.206488
vn -0.978179 0.000000 -0.207678
vn -0.984863 0.000000 -0.173162
vn -0.976989 -0.002197 0.213233
s 1
f 7/1/1 6/2/1 5/3/1
f 7/1/1 5/3/1 4/4/1
f 9/5/2 18/6/2 21/7/2
f 9/5/2 21/7/2 12/8/2
f 20/7/3 19/6/4 10/9/3
f 20/7/3 10/9/3 11/10/3
f 27/11/5 28/12/5 25/7/5
f 27/11/5 25/7/5 24/6/5
f 34/1/6 33/2/6 32/3/6
f 34/1/6 32/3/6 31/4/6
f 43/13/7 42/2/7 41/3/7
f 43/13/7 41/3/7 40/14/7
f 3/15/8 1/16/8 8/3/8
f 3/15/8 8/3/8 2/2/8
f 13/7/9 19/17/4 17/18/9
f 13/7/9 17/18/9 14/19/9
f 15/20/10 45/7/10 47/6/10
f 15/20/10 47/6/10 16/21/10
f 36/22/11 29/23/11 35/24/11
f 36/22/11 35/24/11 30/25/11
f 39/26/12 37/27/12 38/3/12
f 39/26/12 38/3/12 44/2/12
f 46/20/13 26/21/13 23/6/13
f 46/20/13 23/6/13 22/7/13
