# Blender v2.65 (sub 3) OBJ File: 'turnTable_6.blend'
# www.blender.org
o facing_VIEW.001_Cylinder.000_facing_VIEW.001_Cylinder.005
v -2.014624 1.004570 0.931958
v -2.014624 -0.086660 0.931958
v -0.002903 -0.086660 1.021175
v 2.018579 -0.086660 0.929257
v 1.838552 -0.086660 -0.976813
v 3.839916 -0.086660 -1.124691
v 2.018579 1.004570 0.929257
v -0.002903 1.004570 1.021175
v 4.012358 2.029846 0.843783
v 6.060977 2.031387 0.559420
v 8.160114 1.004570 0.158473
v 4.012358 1.004570 0.843784
v 6.060977 1.004570 0.559421
v 1.838552 0.996650 -0.976813
v 3.799664 0.996650 -1.124691
v 8.014539 3.026307 0.158473
v 10.116778 3.026307 -0.319399
v 8.018597 2.007650 0.154292
v 10.116778 2.004570 -0.319399
v -8.958641 1.031948 4.172210
v -4.379258 1.032701 4.847184
v -8.958641 0.009960 4.172210
v -6.714813 0.009960 4.555702
v -4.457466 0.009960 4.845531
v -6.714813 1.031948 4.555702
v -5.531704 0.009960 -3.291809
v -1.728663 1.032842 -2.905139
v -3.621364 0.009960 -3.055242
v -1.814490 0.009960 -2.906717
v -3.621364 1.031948 -3.055242
v -5.531704 1.031948 -3.291809
v 8.160114 2.031388 0.158473
vt 0.000000 0.000000
vt 1.000000 0.000000
vt 1.000000 0.495217
vt 0.000000 0.495217
vt 0.000000 0.499384
vt 1.000000 0.499384
vt 1.000000 0.519468
vt 0.000000 0.519468
vt 1.000000 0.504193
vt 0.000000 0.504193
vt 1.000000 0.496753
vt 0.000000 0.496753
vt 1.000000 0.497524
vt 0.000000 0.497524
vn 0.000549 0.000000 0.999969
vn 0.045412 0.000000 0.998962
vn 0.137486 0.000000 0.990478
vn 0.162603 0.000000 0.986663
vn 0.074404 0.001373 0.997223
vn 0.220923 -0.001556 0.975280
vn -0.101688 0.001282 0.994812
vn -0.080447 0.002594 0.996734
vn -0.147038 0.001984 0.989105
vn -0.125553 0.003998 0.992065
vn -0.044282 0.000000 0.998993
vn 0.187597 0.000000 0.982238
vn -0.168462 0.000000 0.985687
vn -0.122868 0.000000 0.992401
s 1
f 3/1/1 4/2/2 7/3/2
f 3/1/1 7/3/2 8/4/1
f 9/5/3 12/1/3 13/2/4
f 9/5/3 13/2/4 10/6/4
f 5/1/5 6/2/5 15/7/5
f 5/1/5 15/7/5 14/8/5
f 18/1/6 19/2/6 17/9/6
f 18/1/6 17/9/6 16/10/6
f 28/1/7 29/2/8 27/3/8
f 28/1/7 27/3/8 30/4/7
f 23/1/9 24/2/10 21/3/10
f 23/1/9 21/3/10 25/4/9
f 8/11/1 1/12/11 2/1/11
f 8/11/1 2/1/11 3/2/1
f 11/2/12 32/13/12 10/14/4
f 11/2/12 10/14/4 13/1/4
f 22/1/13 23/2/9 25/11/9
f 22/1/13 25/11/9 20/12/13
f 26/1/14 28/2/7 30/11/7
f 26/1/14 30/11/7 31/12/14
