# Blender v2.65 (sub 0) OBJ File: 'turnTable.blend'
# www.blender.org
o facing_VIEW.001_Cylinder.002_facing_VIEW.001_Cylinder.004
v -1.910413 0.004570 -1.046058
v -2.014624 0.004570 0.931958
v -2.014624 1.004570 0.931958
v -1.910413 1.004570 -1.046058
v 1.918416 0.004570 -1.046058
v 2.022627 0.004570 0.931958
v 2.022627 1.004570 0.931958
v 1.918416 1.004570 -1.046058
v 1.911633 0.004570 -1.048622
v 3.839916 0.004570 -1.196499
v 3.639719 0.004571 -3.047244
v 1.810971 0.004570 -2.910299
v 7.655533 2.004570 -1.848335
v 8.079098 2.004570 0.084464
v 3.839916 2.004570 -1.196499
v 4.052609 2.004570 0.769775
v 7.655533 1.004570 -1.848336
v 8.079098 1.004570 0.084464
v 3.839916 1.004570 -1.196499
v 4.052609 1.004570 0.769775
v 1.911633 1.004570 -1.048622
v 3.839916 1.004570 -1.196499
v 3.639719 1.004571 -3.047244
v 1.810971 1.004571 -2.910300
v 7.655533 3.004570 -1.848336
v 8.079098 3.004570 0.084464
v 10.071263 3.004570 -0.349209
v 9.542725 3.004570 -2.260156
v 7.655533 2.004570 -1.848335
v 8.079098 2.004570 0.084464
v 10.071263 2.004570 -0.349209
v 9.542725 2.004570 -2.260156
vt 0.000000 0.000000
vt 0.504857 0.000000
vt 0.504857 1.000000
vt 0.000000 1.000000
vt 0.000001 1.000000
vt 1.000000 0.000000
vt 1.000000 0.505627
vt 0.000000 0.505626
vt 0.505391 0.000000
vt 0.505391 1.000000
vt 0.536368 0.999999
vt 0.000002 1.000000
vt 0.536366 0.000000
vt 0.537189 0.000000
vt 0.537190 1.000000
vt 0.504365 0.000000
vt 0.504365 1.000000
vt 1.000000 0.505391
vt 0.000000 0.505391
vn -0.998596 0.000000 -0.052583
vn 0.998596 0.000000 -0.052583
vn -0.994171 0.000000 0.107517
vn 0.976806 0.000000 -0.214057
vn -0.998535 0.000000 0.053987
vn 0.994171 0.000000 -0.107517
vn 0.963805 0.000000 -0.266549
vn -0.976806 0.000000 0.214057
s 1
f 4/1/1 1/2/1 2/3/1
f 4/1/1 2/3/1 3/4/1
f 8/2/2 7/3/2 6/5/2
f 8/2/2 6/5/2 5/1/2
f 15/6/3 19/7/3 20/8/3
f 15/6/3 20/8/3 16/1/3
f 17/1/4 13/9/4 14/10/4
f 17/1/4 14/10/4 18/4/4
f 9/11/5 21/12/5 24/1/5
f 9/11/5 24/1/5 12/13/5
f 23/14/6 22/15/6 10/4/6
f 23/14/6 10/4/6 11/1/6
f 31/5/7 32/1/7 28/16/7
f 31/5/7 28/16/7 27/17/7
f 29/18/8 30/19/8 26/1/8
f 29/18/8 26/1/8 25/6/8
