# Blender v2.65 (sub 0) OBJ File: 'turnTable.blend'
# www.blender.org
o facing_VIEW.001_Cylinder.003_facing_VIEW.001_Cylinder.005
v 1.911633 1.004570 -1.048622
v 2.018579 1.004570 0.929257
v -0.004015 1.004570 -0.961516
v -0.002903 1.004570 1.021175
v -2.014624 1.004570 0.931958
v -1.910413 1.004570 -1.046058
v 7.655533 2.004570 -1.848335
v 8.079098 2.004570 0.084464
v 3.839916 2.004570 -1.196499
v 4.052609 2.004570 0.769775
v 6.060977 2.004570 0.485412
v 5.742393 2.004570 -1.469232
v 1.911633 1.004570 -1.048622
v 3.839916 1.004570 -1.196499
v 3.639719 1.004571 -3.047244
v 1.810971 1.004571 -2.910300
v 7.655533 3.004570 -1.848336
v 8.079098 3.004570 0.084464
v 10.071263 3.004570 -0.349209
v 9.542725 3.004570 -2.260156
vt -0.000000 1.000000
vt 0.000000 -0.000000
vt 1.000000 0.000000
vt 1.000000 1.000000
vn 0.000000 1.000000 0.000000
vn 0.000000 0.999969 0.000000
s 1
f 6/1/1 5/2/1 4/3/2
f 6/1/1 4/3/2 3/4/1
f 2/3/1 1/4/1 3/1/1
f 2/3/1 3/1/1 4/2/2
f 9/1/1 10/2/1 11/3/1
f 9/1/1 11/3/1 12/4/1
f 12/1/1 11/2/1 8/3/1
f 12/1/1 8/3/1 7/4/1
f 16/1/1 13/2/2 14/3/1
f 16/1/1 14/3/1 15/4/1
f 17/1/1 18/2/1 19/3/1
f 17/1/1 19/3/1 20/4/1
