# Blender v2.65 (sub 3) OBJ File: 'turnTable_7.blend'
# www.blender.org
o facing_VIEW.001_Cylinder.007_facing_VIEW.001_Cylinder.010
v -1.714235 1.675958 -4.769681
v 1.710308 1.675958 -4.771976
v 5.142661 3.367363 -5.148840
v -5.131642 3.367363 -5.142903
v -5.131642 0.004571 -5.142903
v 8.547746 3.367363 -5.857507
v 8.547746 0.004571 -5.857508
v 5.142661 0.004571 -5.148841
v -1.714235 5.034550 -4.769680
v -8.561259 3.367363 -5.847918
v -8.561259 0.004571 -5.847919
v 1.710308 5.034550 -4.771976
v -8.561259 6.750994 -5.847918
v -5.131642 6.750994 -5.142902
v 8.547746 6.750994 -5.857507
v 5.142661 6.750994 -5.148840
v -1.714235 1.675958 -4.769681
v -0.006107 1.675958 -4.772635
v 1.710308 1.675958 -4.771976
v 3.474297 1.675958 -4.941288
v 5.142661 1.675958 -5.148841
v -5.131642 1.675958 -5.142903
v -3.427356 1.675958 -4.934848
v -1.714235 0.004571 -4.769681
v -0.006108 0.004571 -4.772635
v 1.710308 0.004571 -4.771976
v -5.131642 0.004571 -5.142903
v -3.427356 0.004571 -4.934848
v 3.474297 0.004571 -4.941288
v 5.142661 0.004571 -5.148841
v -3.427356 5.034550 -4.934847
v -1.714235 5.034550 -4.769680
v -0.006107 5.034550 -4.772635
v 1.710308 5.034550 -4.771976
v 3.474297 5.034550 -4.941287
v 5.142660 5.034550 -5.148840
v -5.131642 5.034550 -5.142902
v -3.427356 6.750994 -4.934847
v -1.714235 6.750994 -4.769680
v -5.131642 6.750994 -5.142902
v -0.006107 6.750994 -4.772635
v 1.710308 6.750994 -4.771976
v 3.474297 6.750994 -4.941287
v 5.142661 6.750994 -5.148840
vt -0.000000 1.000000
vt 0.000000 -0.000000
vt 1.000000 0.000000
vt 1.000000 1.000000
vn 0.000641 0.000000 0.999969
vn -0.201331 0.000000 0.979492
vn 0.203742 0.000000 0.979003
vn -0.047151 0.000000 0.998871
vn 0.000671 0.000000 0.999969
vn 0.047609 0.000000 0.998840
vn -0.121158 0.000000 0.992615
vn -0.108554 0.000000 0.994079
vn 0.109500 0.000000 0.993957
vn 0.123447 0.000000 0.992340
s 1
f 9/1/1 1/2/1 2/3/1
f 9/1/1 2/3/1 12/4/1
f 13/1/2 10/2/2 4/3/2
f 13/1/2 4/3/2 14/4/2
f 11/2/2 5/3/2 4/4/2
f 11/2/2 4/4/2 10/1/2
f 7/3/3 6/4/3 3/1/3
f 7/3/3 3/1/3 8/2/3
f 3/2/3 6/3/3 15/4/3
f 3/2/3 15/4/3 16/1/3
f 17/1/4 24/2/4 25/3/5
f 17/1/4 25/3/5 18/4/5
f 18/1/5 25/2/5 26/3/6
f 18/1/5 26/3/6 19/4/6
f 22/1/7 27/2/7 28/3/8
f 22/1/7 28/3/8 23/4/8
f 19/1/6 26/2/6 29/3/9
f 19/1/6 29/3/9 20/4/9
f 20/1/9 29/2/9 30/3/10
f 20/1/9 30/3/10 21/4/10
f 23/1/8 28/2/8 24/3/4
f 23/1/8 24/3/4 17/4/4
f 43/1/9 35/2/9 36/3/10
f 43/1/9 36/3/10 44/4/10
f 31/2/8 32/3/4 39/4/4
f 31/2/8 39/4/4 38/1/8
f 40/1/7 37/2/7 31/3/8
f 40/1/7 31/3/8 38/4/8
f 42/1/6 34/2/6 35/3/9
f 42/1/6 35/3/9 43/4/9
f 41/1/5 33/2/5 34/3/6
f 41/1/5 34/3/6 42/4/6
f 39/1/4 32/2/4 33/3/5
f 39/1/4 33/3/5 41/4/5
